Coordinates
version=1
nRows=27
nColumns=19
inDegrees=yes

Units are S.I. units (second, meters, Newtons, ...)
If the header above contains a line with 'inDegrees', this indicates whether rotational values are in degrees (yes) or radians (no).

endheader
time	pelvis_tilt	pelvis_list	pelvis_rotation	pelvis_tx	pelvis_ty	pelvis_tz	hip_flexion_r	hip_adduction_r	hip_rotation_r	knee_angle_r	knee_angle_r_beta	ankle_angle_r	hip_flexion_l	hip_adduction_l	hip_rotation_l	knee_angle_l	knee_angle_l_beta	ankle_angle_l
     13.81333333	     -3.94753294	      6.08937102	      3.90744175	      2.13639130	      0.88519393	      1.01497919	    -22.71120980	     -9.16042213	    -14.02836379	     59.10812159	      1.03163134	     -7.46933889	     26.87894606	     11.03134068	     -4.39790816	     13.28624014	      0.23188864	      6.04450626
     13.82000000	     -3.56390630	      6.46040130	      4.12368504	      2.13466646	      0.88156966	      1.01585485	    -21.35006473	     -8.80084646	    -11.84075958	     63.98595718	      1.11676563	     -8.00641274	     27.12141958	     11.09849781	     -6.32950531	     16.46627415	      0.28739070	      5.87409990
     13.82666667	     -3.16939746	      6.72036970	      4.49635148	      2.13282166	      0.87759457	      1.01694752	    -19.99945150	     -8.23585308	    -10.15746497	     68.74692545	      1.19986020	     -8.51259344	     27.39218539	     11.00306444	     -7.86896594	     20.04924139	      0.34992527	      5.87644301
     13.83333333	     -2.74208583	      6.88926386	      5.02906167	      2.13084047	      0.87336118	      1.01812634	    -18.68832143	     -7.56637968	     -9.01353835	     73.36822834	      1.28051715	     -8.90846503	     27.61487097	     10.81181136	     -8.90213578	     23.86734373	      0.41656373	      6.12630644
     13.84000000	     -2.23168966	      6.99400357	      5.69434330	      2.12872717	      0.86899969	      1.01929668	    -17.46223444	     -6.88810602	     -8.38696434	     77.82889344	      1.35837044	     -9.13260959	     27.68762575	     10.60126949	     -9.36612431	     27.76162726	      0.48453180	      6.70375284
     13.84666667	     -1.83440354	      7.06689983	      6.47508062	      2.12646032	      0.86440082	      1.02026071	    -16.07645735	     -6.35270082	     -8.20942203	     82.17820333	      1.43428022	     -9.15509008	     27.79761234	     10.46253521	     -9.28336352	     31.61576133	      0.55179913	      7.61625608
     13.85333333	     -1.40198804	      7.09795848	      7.31456176	      2.12400127	      0.85987976	      1.02098105	    -14.66749185	     -5.94228463	     -8.34945911	     86.36743668	      1.50739614	     -9.00206093	     27.75438810	     10.39871866	     -8.72645534	     35.31573146	      0.61637579	      8.89151121
     13.86000000	     -0.79657190	      7.12850606	      8.15567901	      2.12134816	      0.85574145	      1.02142858	    -13.38796612	     -5.73172200	     -8.73739623	     90.35592231	      1.57700834	     -8.64999719	     27.35807092	     10.43116487	     -7.79916498	     38.74770995	      0.67627512	     10.49915319
     13.86666667	     -0.55887568	      7.10590457	      8.96625184	      2.11862256	      0.85151766	      1.02155566	    -11.56835668	     -5.71579671	     -9.13188830	     94.24070350	      1.64481057	     -8.26991301	     27.20433532	     10.52696380	     -6.71103241	     41.91756894	      0.73159959	     12.36687699
     13.87333333	     -0.29558675	      7.12453864	      9.63990432	      2.11581304	      0.84777161	      1.02142741	     -9.67142233	     -5.99383187	     -9.49415426	     97.94098194	      1.70939261	     -7.75329792	     26.77518269	     10.68752243	     -5.61343706	     44.65351141	      0.77935080	     14.37818212
     13.88000000	     -0.03589354	      7.12650755	     10.16965729	      2.11298592	      0.84454496	      1.02110234	     -7.63823942	     -6.44891542	     -9.72546243	    101.41373987	      1.77000367	     -7.18853607	     26.10496931	     10.82791959	     -4.55473180	     46.96184944	      0.81963890	     16.48162848
     13.88666667	      0.67287266	      7.34012769	     10.49254048	      2.11032720	      0.84239101	      1.02063610	     -6.07786733	     -7.26075900	     -9.85638052	    104.52851445	      1.82436674	     -6.67635279	     24.58421132	     11.04908933	     -3.69131659	     48.69609039	      0.84990711	     18.63788790
     13.89333333	      0.28689211	      7.13083937	     10.67019068	      2.10753893	      0.83962694	      1.02009528	     -2.91633528	     -7.82045554	     -9.49638526	    107.61762272	      1.87828185	     -6.05578265	     24.17699494	     10.96940894	     -2.93076648	     50.16632967	      0.87556763	     20.59075747
     13.90000000	      0.78713283	      7.17563582	     10.74635808	      2.10509488	      0.83845196	      1.01941941	     -0.82202518	     -8.61103070	     -9.21102356	    110.13104497	      1.92214934	     -5.54390295	     22.39430646	     10.98582555	     -2.20794494	     51.00307664	      0.89017162	     22.60530222
     13.90666667	      0.43468064	      7.11256925	     10.37102184	      2.10273200	      0.83694232	      1.01901730	      2.60752210	     -9.39420791	     -8.17093980	    112.58009772	      1.96489338	     -5.07019568	     21.36729987	     10.82226781	     -2.09936305	     51.42826599	      0.89759257	     24.14828750
     13.91333333	      0.29878409	      6.98386272	     10.07474750	      2.10065285	      0.83619656	      1.01850066	      5.78057406	    -10.02671580	     -7.28536732	    114.50560439	      1.99849981	     -4.65993595	     19.87192483	     10.61553643	     -1.80884443	     51.46418905	      0.89821955	     25.62204612
     13.92000000	      0.04368799	      6.82760809	      9.67600571	      2.09888741	      0.83583709	      1.01804599	      9.14922063	    -10.54407610	     -6.26601166	    116.02991864	      2.02510411	     -4.28450810	     18.28788575	     10.36428606	     -1.64151180	     51.09345410	      0.89174900	     26.86181915
     13.92666667	     -0.12034273	      6.68071332	      9.25839901	      2.09746337	      0.83609941	      1.01757117	     12.36817197	    -11.00991643	     -5.33119382	    117.07101650	      2.04327470	     -3.91341776	     16.39289060	     10.10249964	     -1.51384737	     50.34116238	      0.87861903	     27.84500008
     13.93333333	     -0.38351601	      6.43003916	      8.86672804	      2.09628815	      0.83679649	      1.01719188	     15.66229031	    -11.25941830	     -4.51975465	    117.65609371	      2.05348622	     -3.55712412	     14.47615022	      9.76494908	     -1.30853441	     49.31590720	      0.86072495	     28.47676554
     13.94000000	     -0.63063389	      6.11981029	      8.57596710	      2.09549204	      0.83799454	      1.01677864	     18.77369356	    -11.41367800	     -3.98551478	    117.74945418	      2.05511567	     -3.20256053	     12.39891941	      9.37667402	     -1.01211900	     48.02005922	      0.83810814	     28.89340534
     13.94666667	     -0.89309510	      5.58852780	      8.54583217	      2.09503574	      0.83978082	      1.01622828	     21.63759051	    -11.36027881	     -3.98857083	    117.28777495	      2.04705785	     -2.71183126	     10.29034496	      8.78857882	     -0.42054439	     46.59308197	      0.81320269	     28.88411657
     13.95333333	     -1.24156060	      5.28635316	      8.08608336	      2.09484169	      0.84187695	      1.01613165	     24.64607960	    -11.37684134	     -3.56563385	    116.55284783	      2.03423095	     -2.39455698	      8.09479413	      8.34298434	     -0.40477085	     44.76132075	      0.78123242	     28.49398898
     13.96000000	     -1.70521719	      4.62648568	      8.10143538	      2.09499364	      0.84446641	      1.01573571	     27.37127173	    -11.18723909	     -3.98201973	    115.23185492	      2.01117527	     -1.90340335	      6.09840281	      7.57386306	      0.09445893	     42.99552999	      0.75041356	     27.74361688
     13.96666667	     -1.69137027	      4.06676634	      7.86038292	      2.09567315	      0.84808757	      1.01563255	     29.36003026	    -10.96053545	     -4.36387835	    113.45195831	      1.98011022	     -1.51537234	      3.40518950	      6.74063047	      0.15157660	     40.81700546	      0.71239114	     26.52194873
     13.97333333	     -1.65319987	      3.27904907	      7.90314525	      2.09662635	      0.85225118	      1.01537137	     30.95368528	    -10.62981178	     -5.30670103	    111.17702824	      1.94040520	     -1.04904293	      0.76172959	      5.65788858	      0.45059603	     38.64783516	      0.67453197	     24.87032533
     13.98000000	     -1.73068665	      2.41343696	      7.93159345	      2.09781770	      0.85665552	      1.01514577	     32.46906069	    -10.21480199	     -6.35548092	    108.54316128	      1.89443554	     -0.67111150	     -1.70996367	      4.46265584	      0.54273507	     36.42293915	      0.63570021	     22.72976560
     13.98666667	     -2.69437954	      1.55399229	      8.05891088	      2.09902499	      0.86027314	      1.01492853	     34.82960231	     -9.95660258	     -7.44175108	    105.72130946	      1.84518494	     -0.34032041	     -3.02822737	      3.36543774	      0.52568843	     34.44436149	      0.60116752	     20.16889205
